<svg width="28" height="27" viewBox="0 0 28 27" fill="none" xmlns="http://www.w3.org/2000/svg">
<path d="M13.2392 1.34164C13.4786 0.604589 14.5214 0.604592 14.7608 1.34164L17.4126 9.50294C17.5197 9.83256 17.8269 10.0557 18.1735 10.0557H26.7548C27.5297 10.0557 27.852 11.0474 27.225 11.5029L20.2826 16.5469C20.0022 16.7506 19.8849 17.1117 19.992 17.4413L22.6437 25.6026C22.8832 26.3397 22.0396 26.9526 21.4126 26.4971L14.4702 21.4531C14.1898 21.2494 13.8102 21.2494 13.5298 21.4531L6.58735 26.4971C5.96038 26.9526 5.1168 26.3397 5.35628 25.6026L8.00805 17.4413C8.11515 17.1117 7.99782 16.7506 7.71743 16.5469L0.775012 11.5029C0.148041 11.0474 0.470263 10.0557 1.24524 10.0557H9.82654C10.1731 10.0557 10.4803 9.83256 10.5874 9.50294L13.2392 1.34164Z" fill="white"/>
</svg>
