<svg width="128" height="128" viewBox="0 0 128 128" fill="none" xmlns="http://www.w3.org/2000/svg">
<circle opacity="0.32" cx="64" cy="64" r="60" fill="#F52D2D"/>
<circle cx="64" cy="64" r="48" fill="#F52D2D"/>
<path d="M81.0628 62.3642C82.3124 63.0913 82.3124 64.9088 81.0628 65.6358L56.8117 79.7441C55.5621 80.4711 54 79.5624 54 78.1084L54 49.8916C54 48.4376 55.5621 47.5289 56.8117 48.2559L81.0628 62.3642Z" fill="white"/>
<path d="M64 120C33.0721 120 8 94.9279 8 64H0C0 99.3462 28.6538 128 64 128V120ZM120 64C120 94.9279 94.9279 120 64 120V128C99.3462 128 128 99.3462 128 64H120ZM64 8C94.9279 8 120 33.0721 120 64H128C128 28.6538 99.3462 0 64 0V8ZM64 0C28.6538 0 0 28.6538 0 64H8C8 33.0721 33.0721 8 64 8V0Z" fill="#9747FF"/>
</svg>
